<?xml version="1.0" standalone="no"?>
<!DOCTYPE svg PUBLIC "-//W3C//DTD SVG 20010904//EN"
 "http://www.w3.org/TR/2001/REC-SVG-20010904/DTD/svg10.dtd">
<svg version="1.0" xmlns="http://www.w3.org/2000/svg"
 width="79.000000pt" height="35.000000pt" viewBox="0 0 79.000000 35.000000"
 preserveAspectRatio="xMidYMid meet">

<g transform="translate(0.000000,35.000000) scale(0.100000,-0.100000)"
fill="#000000" stroke="none">
<path d="M278 243 c5 -23 7 -25 10 -8 2 11 9 23 16 27 6 5 3 8 -10 8 -18 0
-20 -4 -16 -27z"/>
<path d="M340 240 c0 -21 5 -30 16 -30 14 0 14 3 4 15 -10 12 -10 15 1 15 12
0 12 2 0 9 -11 7 -11 9 0 14 10 4 9 6 -3 6 -13 1 -18 -7 -18 -29z"/>
<path d="M411 243 c-1 -24 3 -33 15 -33 12 0 14 3 6 13 -5 6 -12 21 -15 32 -3
13 -5 9 -6 -12z"/>
<path d="M470 251 c0 -28 26 -47 45 -31 17 14 20 50 5 50 -5 0 -10 -9 -10 -19
0 -11 -4 -23 -10 -26 -6 -4 -10 5 -10 19 0 14 -4 26 -10 26 -5 0 -10 -8 -10
-19z"/>
<path d="M560 256 c0 -8 6 -17 13 -19 9 -4 8 -8 -3 -16 -13 -9 -13 -11 3 -11
24 0 32 26 14 45 -19 19 -27 19 -27 1z"/>
</g>
</svg>
