<?xml version="1.0" encoding="UTF-8"?>
<!DOCTYPE svg PUBLIC "-//W3C//DTD SVG 1.1//EN" "http://www.w3.org/Graphics/SVG/1.1/DTD/svg11.dtd">
<svg xmlns="http://www.w3.org/2000/svg" version="1.1" width="550px" height="55px" style="shape-rendering:geometricPrecision; text-rendering:geometricPrecision; image-rendering:optimizeQuality; fill-rule:evenodd; clip-rule:evenodd" xmlns:xlink="http://www.w3.org/1999/xlink">
<g><path style="opacity:1" fill="#fcfcfd" d="M -0.5,-0.5 C 71.1667,-0.5 142.833,-0.5 214.5,-0.5C 214.5,25.5 214.5,51.5 214.5,77.5C 142.833,77.5 71.1667,77.5 -0.5,77.5C -0.5,51.5 -0.5,25.5 -0.5,-0.5 Z"/></g>
<g><path style="opacity:1" fill="#73578d" d="M 52.5,19.5 C 52.8333,18.8333 53.1667,18.1667 53.5,17.5C 59.8089,16.2024 66.1423,15.3691 72.5,15C 65.8895,16.8231 59.2228,18.3231 52.5,19.5 Z"/></g>
<g><path style="opacity:1" fill="#4c296e" d="M 83.5,35.5 C 82.1667,35.5 80.8333,35.5 79.5,35.5C 79.8195,30.6367 79.4861,25.97 78.5,21.5C 76.8333,21.5 75.1667,21.5 73.5,21.5C 73.5,20.5 73.5,19.5 73.5,18.5C 78.5,18.5 83.5,18.5 88.5,18.5C 88.5,19.5 88.5,20.5 88.5,21.5C 86.8333,21.5 85.1667,21.5 83.5,21.5C 83.5,26.1667 83.5,30.8333 83.5,35.5 Z"/></g>
<g><path style="opacity:1" fill="#4d2b6f" d="M 96.5,18.5 C 100.5,18.5 104.5,18.5 108.5,18.5C 108.5,19.5 108.5,20.5 108.5,21.5C 105.833,21.5 103.167,21.5 100.5,21.5C 100.5,22.8333 100.5,24.1667 100.5,25.5C 102.5,25.5 104.5,25.5 106.5,25.5C 106.5,26.5 106.5,27.5 106.5,28.5C 104.5,28.5 102.5,28.5 100.5,28.5C 100.5,29.8333 100.5,31.1667 100.5,32.5C 103.167,32.5 105.833,32.5 108.5,32.5C 108.5,33.5 108.5,34.5 108.5,35.5C 104.5,35.5 100.5,35.5 96.5,35.5C 96.5,29.8333 96.5,24.1667 96.5,18.5 Z"/></g>
<g><path style="opacity:1" fill="#533273" d="M 117.5,18.5 C 119.167,18.5 120.833,18.5 122.5,18.5C 122.5,23.1667 122.5,27.8333 122.5,32.5C 124.833,32.5 127.167,32.5 129.5,32.5C 129.5,33.5 129.5,34.5 129.5,35.5C 125.5,35.5 121.5,35.5 117.5,35.5C 117.5,29.8333 117.5,24.1667 117.5,18.5 Z"/></g>
<g><path style="opacity:1" fill="#543274" d="M 135.5,18.5 C 137.167,18.5 138.833,18.5 140.5,18.5C 140.334,22.8461 140.501,27.1794 141,31.5C 142.667,32.8333 144.333,32.8333 146,31.5C 146.499,27.1794 146.666,22.8461 146.5,18.5C 148.167,18.5 149.833,18.5 151.5,18.5C 151.666,23.5111 151.499,28.5111 151,33.5C 145.64,37.7698 140.64,37.4365 136,32.5C 135.501,27.8452 135.334,23.1785 135.5,18.5 Z"/></g>
<g><path style="opacity:1" fill="#593878" d="M 164.5,17.5 C 168.013,17.3075 171.346,17.9741 174.5,19.5C 174.081,20.6721 173.415,21.6721 172.5,22.5C 170.253,21.6258 167.92,21.2924 165.5,21.5C 165.5,22.5 165.5,23.5 165.5,24.5C 169.254,24.5568 172.421,25.8901 175,28.5C 175.571,32.6146 173.737,35.1146 169.5,36C 166.132,36.5428 162.799,36.3761 159.5,35.5C 159.312,33.8967 159.812,32.5634 161,31.5C 163.719,32.4438 166.552,32.7771 169.5,32.5C 169.5,31.5 169.5,30.5 169.5,29.5C 165.87,29.2354 162.703,27.9021 160,25.5C 159.533,21.7853 161.033,19.1186 164.5,17.5 Z"/></g>
<g><path style="opacity:1" fill="#674a82" d="M 46.5,21.5 C 45.1667,21.8333 43.8333,22.1667 42.5,22.5C 41.391,22.5569 40.391,22.8902 39.5,23.5C 32.3357,25.0824 25.169,26.749 18,28.5C 15.6962,28.6824 15.1962,28.0157 16.5,26.5C 26.2057,23.9229 35.8724,21.5896 45.5,19.5C 47.7157,18.7974 49.549,17.4641 51,15.5C 50.7498,18.2967 49.2498,20.2967 46.5,21.5 Z"/></g>
<g><path style="opacity:1" fill="#edf5e5" d="M 46.5,21.5 C 44.7977,24.3948 42.4644,26.2281 39.5,27C 41.1412,25.871 42.1412,24.371 42.5,22.5C 43.8333,22.1667 45.1667,21.8333 46.5,21.5 Z"/></g>
<g><path style="opacity:1" fill="#9f8db1" d="M 78.5,21.5 C 79.4861,25.97 79.8195,30.6367 79.5,35.5C 80.8333,35.5 82.1667,35.5 83.5,35.5C 82.0813,36.4511 80.4147,36.7845 78.5,36.5C 78.5,31.5 78.5,26.5 78.5,21.5 Z"/></g>
<g><path style="opacity:1" fill="#7cd232" d="M 53.5,17.5 C 53.1667,18.1667 52.8333,18.8333 52.5,19.5C 47.786,24.7009 42.286,29.0342 36,32.5C 32.7303,39.5673 34.897,42.0673 42.5,40C 48.4218,37.8592 54.0885,35.5259 59.5,33C 53.8766,37.6095 47.5433,40.9428 40.5,43C 34.4718,44.1422 31.1385,41.6422 30.5,35.5C 23.6157,38.9532 16.6157,41.7865 9.5,44C 10.1667,42.6667 10.8333,41.3333 11.5,40C 19.0609,37.5528 26.3942,34.5528 33.5,31C 35.3336,28.3367 37.3336,25.8367 39.5,23.5C 40.391,22.8902 41.391,22.5569 42.5,22.5C 42.1412,24.371 41.1412,25.871 39.5,27C 42.4644,26.2281 44.7977,24.3948 46.5,21.5C 49.2498,20.2967 50.7498,18.2967 51,15.5C 49.549,17.4641 47.7157,18.7974 45.5,19.5C 45.0618,19.5654 44.7284,19.3988 44.5,19C 46.7319,16.2651 49.3986,14.0984 52.5,12.5C 54.7043,13.782 55.0376,15.4486 53.5,17.5 Z"/></g>
<g><path style="opacity:1" fill="#4a286d" d="M 78.5,48.5 C 79.8164,51.0866 80.483,54.0866 80.5,57.5C 80.1667,60.5 79.8333,63.5 79.5,66.5C 78.5041,60.5368 78.1707,54.5368 78.5,48.5 Z"/></g>
<g><path style="opacity:1" fill="#4a286d" d="M 200.5,48.5 C 201.816,51.0866 202.483,54.0866 202.5,57.5C 202.167,60.5 201.833,63.5 201.5,66.5C 200.504,60.5368 200.171,54.5368 200.5,48.5 Z"/></g>
<g><path style="opacity:1" fill="#644580" d="M 116.5,53.5 C 117.222,53.9175 117.722,54.5842 118,55.5C 119.133,53.7888 120.633,53.2888 122.5,54C 121.069,54.4652 119.903,55.2986 119,56.5C 118.821,59.5535 118.321,62.5535 117.5,65.5C 116.509,61.5546 116.176,57.5546 116.5,53.5 Z"/></g>
<g><path style="opacity:1" fill="#6e5189" d="M 179.5,52.5 C 181.582,52.472 183.416,53.1387 185,54.5C 185.825,58.2113 185.659,61.878 184.5,65.5C 183.676,62.2152 183.176,58.8818 183,55.5C 180.733,54.0652 178.733,54.3985 177,56.5C 176.667,59.5 176.333,62.5 176,65.5C 175.333,61.5 175.333,57.5 176,53.5C 177.313,54.2871 178.48,53.9538 179.5,52.5 Z"/></g>
<g><path style="opacity:1" fill="#654782" d="M 97.5,49.5 C 98.926,50.8015 100.259,52.3015 101.5,54C 100.28,55.5253 99.6132,57.3587 99.5,59.5C 99.6132,61.6413 100.28,63.4747 101.5,65C 100.216,65.6838 99.0495,65.5171 98,64.5C 98.0382,60.668 97.2049,57.168 95.5,54C 97.1066,52.951 97.7733,51.451 97.5,49.5 Z"/></g>
<g><path style="opacity:1" fill="#6e5189" d="M 87.5,52.5 C 90.3245,52.0807 92.4912,53.0807 94,55.5C 93.9967,68.8334 93.33,68.8334 92,55.5C 89.7328,54.0652 87.7328,54.3985 86,56.5C 85.6667,59.5 85.3333,62.5 85,65.5C 84.3333,61.5 84.3333,57.5 85,53.5C 86.159,54.566 86.9924,54.2327 87.5,52.5 Z"/></g>
<g><path style="opacity:1" fill="#644580" d="M 150.5,49.5 C 151.926,50.8015 153.259,52.3015 154.5,54C 153.28,55.5253 152.613,57.3587 152.5,59.5C 152.613,61.6413 153.28,63.4747 154.5,65C 153.216,65.6838 152.049,65.5171 151,64.5C 151.038,60.668 150.205,57.168 148.5,54C 150.107,52.951 150.773,51.451 150.5,49.5 Z"/></g>
<g><path style="opacity:1" fill="#694c85" d="M 191.5,52.5 C 193.722,52.178 195.556,52.8446 197,54.5C 196.962,58.332 197.795,61.832 199.5,65C 198.216,65.6838 197.049,65.5171 196,64.5C 193.333,67.1667 190.667,67.1667 188,64.5C 187.28,62.8876 187.446,61.3876 188.5,60C 191.47,59.2622 194.136,58.0955 196.5,56.5C 194.956,54.5539 192.956,54.0539 190.5,55C 188.949,58.36 188.449,58.1934 189,54.5C 189.995,53.9341 190.828,53.2674 191.5,52.5 Z"/></g>
<g><path style="opacity:1" fill="#5b3b7a" d="M 128.5,52.5 C 130.582,52.472 132.416,53.1387 134,54.5C 134.667,58.1667 134.667,61.8333 134,65.5C 133.667,62.5 133.333,59.5 133,56.5C 130.731,53.9456 128.398,53.9456 126,56.5C 125.667,59.5 125.333,62.5 125,65.5C 124.501,61.5138 124.334,57.5138 124.5,53.5C 126.099,53.7678 127.432,53.4345 128.5,52.5 Z"/></g>
<g><path style="opacity:1" fill="#73578d" d="M 106.5,52.5 C 111.833,52.5 114.5,55.1667 114.5,60.5C 111.102,60.1796 107.768,60.513 104.5,61.5C 107.426,65.4615 110.259,65.4615 113,61.5C 113.684,62.7839 113.517,63.9505 112.5,65C 106.898,67.5775 103.898,65.7441 103.5,59.5C 103.667,58.1667 103.833,56.8333 104,55.5C 105.045,54.6266 105.878,53.6266 106.5,52.5 Z"/></g>
<g><path style="opacity:1" fill="#f9f7fa" d="M 106.5,54.5 C 109.278,54.0217 111.278,55.0217 112.5,57.5C 109.833,58.8333 107.167,58.8333 104.5,57.5C 105.193,56.4822 105.859,55.4822 106.5,54.5 Z"/></g>
<g><path style="opacity:1" fill="#684a84" d="M 164.5,52.5 C 171.865,52.7137 174.365,56.3804 172,63.5C 166.194,68.2517 162.361,66.9184 160.5,59.5C 161.071,56.6873 162.404,54.354 164.5,52.5 Z"/></g>
<g><path style="opacity:1" fill="#f6f4f7" d="M 164.5,54.5 C 171.252,54.8335 172.919,58.0002 169.5,64C 163.498,64.9931 161.332,62.4931 163,56.5C 163.717,55.9558 164.217,55.2891 164.5,54.5 Z"/></g>
<g><path style="opacity:1" fill="#72568c" d="M 140.5,52.5 C 143.325,52.0807 145.491,53.0807 147,55.5C 147.212,58.7577 147.712,61.9243 148.5,65C 147.216,65.6838 146.049,65.5171 145,64.5C 142.333,67.1667 139.667,67.1667 137,64.5C 136.28,62.8876 136.446,61.3876 137.5,60C 140.47,59.2622 143.136,58.0955 145.5,56.5C 142.728,53.7203 140.228,54.0536 138,57.5C 137.294,55.0448 138.127,53.3781 140.5,52.5 Z"/></g>
<g><path style="opacity:1" fill="#faf9fb" d="M 141.5,59.5 C 142.833,59.5 144.167,59.5 145.5,59.5C 144.745,64.5955 142.411,65.5955 138.5,62.5C 139.34,61.265 140.34,60.265 141.5,59.5 Z"/></g>
<g><path style="opacity:1" fill="#f4f2f6" d="M 192.5,59.5 C 193.833,59.5 195.167,59.5 196.5,59.5C 196.185,63.8004 193.851,65.467 189.5,64.5C 189.5,63.1667 189.5,61.8333 189.5,60.5C 190.791,60.7373 191.791,60.404 192.5,59.5 Z"/></g>
</svg>
